HIERARCHY
ROOT hips
{
  OFFSET -0.00735851563513279 12.18665635585785 0.12248523347079754
  CHANNELS 6 Xposition Yposition Zposition Yrotation Xrotation Zrotation
  JOINT spine
  {
    OFFSET 1.0244548320770264e-7 0.5955291986465454 0
    CHANNELS 3 Yrotation Xrotation Zrotation
    JOINT chest
    {
      OFFSET 0 1.2719063864449713 0
      CHANNELS 3 Yrotation Xrotation Zrotation
      JOINT upperChest
      {
        OFFSET 0 1.490802666915459 0
        CHANNELS 3 Yrotation Xrotation Zrotation
        JOINT neck
        {
          OFFSET 0 1.3131953345263365 0
          CHANNELS 3 Yrotation Xrotation Zrotation
          JOINT head
          {
            OFFSET 0 0.8653679716847534 0
            CHANNELS 3 Yrotation Xrotation Zrotation
            JOINT leftEye
            {
              OFFSET 0.20629723300226033 0.6721053123474121 0.3036841657012701
              CHANNELS 3 Yrotation Xrotation Zrotation
              End Site
              {
                OFFSET 0.20629723300226033 0.6721053123474121 0.3036841657012701
              }
            }
            JOINT rightEye
            {
              OFFSET -0.20629652100615203 0.6721066236495972 0.30368443205952644
              CHANNELS 3 Yrotation Xrotation Zrotation
              End Site
              {
                OFFSET -0.20629652100615203 0.6721066236495972 0.30368443205952644
              }
            }
          }
        }
        JOINT leftShoulder
        {
          OFFSET 0.24624172446783632 0.959903359413147 0
          CHANNELS 3 Yrotation Xrotation Zrotation
          JOINT leftUpperArm
          {
            OFFSET 0.9650355761446514 0 0
            CHANNELS 3 Yrotation Xrotation Zrotation
            JOINT leftLowerArm
            {
              OFFSET 2.4419134471639827 0 0
              CHANNELS 3 Yrotation Xrotation Zrotation
              JOINT leftHand
              {
                OFFSET 2.3874557408809456 0 0
                CHANNELS 3 Yrotation Xrotation Zrotation
                JOINT leftIndexProximal
                {
                  OFFSET 0.7029628753662109 0.06118142604827881 0.23586585000157356
                  CHANNELS 3 Yrotation Xrotation Zrotation
                  JOINT leftIndexIntermediate
                  {
                    OFFSET 0.36102771759033203 -0.001475214958190918 0.056637559086084366
                    CHANNELS 3 Yrotation Xrotation Zrotation
                    JOINT leftIndexDistal
                    {
                      OFFSET 0.22344785928726196 -0.007408857345581055 0.02531452476978302
                      CHANNELS 3 Yrotation Xrotation Zrotation
                      End Site
                      {
                        OFFSET 0.22344785928726196 -0.007408857345581055 0.02531452476978302
                      }
                    }
                  }
                }
                JOINT leftLittleProximal
                {
                  OFFSET 0.6958752870559692 0.034375786781311035 -0.29472956992685795
                  CHANNELS 3 Yrotation Xrotation Zrotation
                  JOINT leftLittleIntermediate
                  {
                    OFFSET 0.34538060426712036 -0.0030041933059692383 0.00024324655532836914
                    CHANNELS 3 Yrotation Xrotation Zrotation
                    JOINT leftLittleDistal
                    {
                      OFFSET 0.19865047931671143 0.00746917724609375 -0.010377676226198673
                      CHANNELS 3 Yrotation Xrotation Zrotation
                      End Site
                      {
                        OFFSET 0.19865047931671143 0.00746917724609375 -0.010377676226198673
                      }
                    }
                  }
                }
                JOINT leftMiddleProximal
                {
                  OFFSET 0.7272291779518127 0.09209799766540527 0.05257739871740341
                  CHANNELS 3 Yrotation Xrotation Zrotation
                  JOINT leftMiddleIntermediate
                  {
                    OFFSET 0.40590834617614746 -0.014838695526123047 0.026817932724952698
                    CHANNELS 3 Yrotation Xrotation Zrotation
                    JOINT leftMiddleDistal
                    {
                      OFFSET 0.2495119571685791 -0.026458144187927246 0.010310646146535873
                      CHANNELS 3 Yrotation Xrotation Zrotation
                      End Site
                      {
                        OFFSET 0.2495119571685791 -0.026458144187927246 0.010310646146535873
                      }
                    }
                  }
                }
                JOINT leftRingProximal
                {
                  OFFSET 0.7334893345832825 0.09136629104614258 -0.1205735495314002
                  CHANNELS 3 Yrotation Xrotation Zrotation
                  JOINT leftRingIntermediate
                  {
                    OFFSET 0.3775520920753479 -0.005917906761169434 0.001896639820188284
                    CHANNELS 3 Yrotation Xrotation Zrotation
                    JOINT leftRingDistal
                    {
                      OFFSET 0.2177620530128479 0.007703900337219238 0.0027355607599020004
                      CHANNELS 3 Yrotation Xrotation Zrotation
                      End Site
                      {
                        OFFSET 0.2177620530128479 0.007703900337219238 0.0027355607599020004
                      }
                    }
                  }
                }
                JOINT leftThumbProximal
                {
                  OFFSET 0.02235114574432373 -0.07603192329406738 0.1950724683701992
                  CHANNELS 3 Yrotation Xrotation Zrotation
                  JOINT leftThumbIntermediate
                  {
                    OFFSET 0.3551589846611023 -0.02970755100250244 0.36741212010383606
                    CHANNELS 3 Yrotation Xrotation Zrotation
                    JOINT leftThumbDistal
                    {
                      OFFSET 0.23456048965454102 -0.016631245613098145 0.2093813568353653
                      CHANNELS 3 Yrotation Xrotation Zrotation
                      End Site
                      {
                        OFFSET 0.23456048965454102 -0.016631245613098145 0.2093813568353653
                      }
                    }
                  }
                }
              }
            }
          }
        }
        JOINT rightShoulder
        {
          OFFSET -0.24624088185373694 0.9600239992141724 0
          CHANNELS 3 Yrotation Xrotation Zrotation
          JOINT rightUpperArm
          {
            OFFSET -0.9650300767908009 0 0
            CHANNELS 3 Yrotation Xrotation Zrotation
            JOINT rightLowerArm
            {
              OFFSET -2.4420125187833426 0 0
              CHANNELS 3 Yrotation Xrotation Zrotation
              JOINT rightHand
              {
                OFFSET -2.3874255620910265 0 0
                CHANNELS 3 Yrotation Xrotation Zrotation
                JOINT rightIndexProximal
                {
                  OFFSET -0.7029609084129333 0.06117355823516846 0.23587234504520893
                  CHANNELS 3 Yrotation Xrotation Zrotation
                  JOINT rightIndexIntermediate
                  {
                    OFFSET -0.3610270619392395 -0.0014804601669311523 0.05664427950978279
                    CHANNELS 3 Yrotation Xrotation Zrotation
                    JOINT rightIndexDistal
                    {
                      OFFSET -0.2234485149383545 -0.0074127912521362305 0.025317884981632233
                      CHANNELS 3 Yrotation Xrotation Zrotation
                      End Site
                      {
                        OFFSET -0.2234485149383545 -0.0074127912521362305 0.025317884981632233
                      }
                    }
                  }
                }
                JOINT rightLittleProximal
                {
                  OFFSET -0.6958779096603394 0.034366607666015625 -0.29472311586141586
                  CHANNELS 3 Yrotation Xrotation Zrotation
                  JOINT rightLittleIntermediate
                  {
                    OFFSET -0.3453786373138428 -0.003008127212524414 0.00025422871112823486
                    CHANNELS 3 Yrotation Xrotation Zrotation
                    JOINT rightLittleDistal
                    {
                      OFFSET -0.19865179061889648 0.00746917724609375 -0.010371447540819645
                      CHANNELS 3 Yrotation Xrotation Zrotation
                      End Site
                      {
                        OFFSET -0.19865179061889648 0.00746917724609375 -0.010371447540819645
                      }
                    }
                  }
                }
                JOINT rightMiddleProximal
                {
                  OFFSET -0.7272304892539978 0.09209012985229492 0.05258418060839176
                  CHANNELS 3 Yrotation Xrotation Zrotation
                  JOINT rightMiddleIntermediate
                  {
                    OFFSET -0.4059063792228699 -0.014843940734863281 0.026821313425898552
                    CHANNELS 3 Yrotation Xrotation Zrotation
                    JOINT rightMiddleDistal
                    {
                      OFFSET -0.24951326847076416 -0.026460766792297363 0.010313207283616066
                      CHANNELS 3 Yrotation Xrotation Zrotation
                      End Site
                      {
                        OFFSET -0.24951326847076416 -0.026460766792297363 0.010313207283616066
                      }
                    }
                  }
                }
                JOINT rightRingProximal
                {
                  OFFSET -0.7334906458854675 0.09135580062866211 -0.12056719791144133
                  CHANNELS 3 Yrotation Xrotation Zrotation
                  JOINT rightRingIntermediate
                  {
                    OFFSET -0.37755340337753296 -0.005923151969909668 0.0019026175141334534
                    CHANNELS 3 Yrotation Xrotation Zrotation
                    JOINT rightRingDistal
                    {
                      OFFSET -0.21775943040847778 0.007701277732849121 0.0027383523993194103
                      CHANNELS 3 Yrotation Xrotation Zrotation
                      End Site
                      {
                        OFFSET -0.21775943040847778 0.007701277732849121 0.0027383523993194103
                      }
                    }
                  }
                }
                JOINT rightThumbProximal
                {
                  OFFSET -0.022347867488861084 -0.07603061199188232 0.19507363624870777
                  CHANNELS 3 Yrotation Xrotation Zrotation
                  JOINT rightThumbIntermediate
                  {
                    OFFSET -0.3550455570220947 -0.029461026191711426 0.36754218488931656
                    CHANNELS 3 Yrotation Xrotation Zrotation
                    JOINT rightThumbDistal
                    {
                      OFFSET -0.23451131582260132 -0.016489624977111816 0.20944765955209732
                      CHANNELS 3 Yrotation Xrotation Zrotation
                      End Site
                      {
                        OFFSET -0.23451131582260132 -0.016489624977111816 0.20944765955209732
                      }
                    }
                  }
                }
              }
            }
          }
        }
      }
    }
  }
  JOINT leftUpperLeg
  {
    OFFSET 0.8483456987887621 -0.42556869983673096 0
    CHANNELS 3 Yrotation Xrotation Zrotation
    JOINT leftLowerLeg
    {
      OFFSET 0 -4.6702112872869534 0
      CHANNELS 3 Yrotation Xrotation Zrotation
      JOINT leftFoot
      {
        OFFSET -0.13096565008163452 -5.202569782733917 -0.2985280640423298
        CHANNELS 3 Yrotation Xrotation Zrotation
        JOINT leftToes
        {
          OFFSET 0.01423943042755127 -0.7568342834711075 1.213271364569664
          CHANNELS 3 Yrotation Xrotation Zrotation
          End Site
          {
            OFFSET 0.01423943042755127 -0.7568342834711075 1.213271364569664
          }
        }
      }
    }
  }
  JOINT rightUpperLeg
  {
    OFFSET -0.8483468051999807 -0.42556607723236084 0
    CHANNELS 3 Yrotation Xrotation Zrotation
    JOINT rightLowerLeg
    {
      OFFSET 0 -4.670219469177788 0
      CHANNELS 3 Yrotation Xrotation Zrotation
      JOINT rightFoot
      {
        OFFSET 0.13097601756453514 -5.202573716640472 -0.29853164963424206
        CHANNELS 3 Yrotation Xrotation Zrotation
        JOINT rightToes
        {
          OFFSET -0.014232628047466278 -0.7568355947732925 1.213272675871849
          CHANNELS 3 Yrotation Xrotation Zrotation
          End Site
          {
            OFFSET -0.014232628047466278 -0.7568355947732925 1.213272675871849
          }
        }
      }
    }
  }
}
MOTION
Frames: 5
Frame Time: 0.03333333333333333
-3.3211938588344587 0.15559209912928768 -19.00731180475302 -58.32475081649345 -3.190059398235261 3.6536019131948825 -8.331472242450905 22.239354699864524 -7.333175439373739 -6.68297549229355 7.76919895190197 -1.4554444719375734 0 0 0 12.359226684754484 19.422353515900934 -6.957156124664075 11.343931853451627 -12.685507316503022 -4.721434776456341 0 0 0 0 0 0 -10.282173468054335 2.382059359071905 -5.932704700393835 -100.48966010097968 -11.974181200601702 -27.66702268532956 -69.85381678493545 39.88684230437436 6.71535800936518 -6.361075802331561 4.264335917245276 9.727027575792581 0 0 0 0 0 0 0 0 0 0 0 0 0 0 0 0 0 0 0 0 0 0 0 0 0 0 0 0 0 0 0 0 0 0 0 0 0 0 0 0 0 0 0 0 0 31.344465678448927 -7.427501852192224 32.886455660474 -9.224256132542042 -10.12446173010479 37.725281341651744 91.39965689425469 -9.36211443903798 -7.759022609588179 -9.916557065147778 -7.624052641910424 -42.01299724581855 0 0 0 0 0 0 0 0 0 0 0 0 0 0 0 0 0 0 0 0 0 0 0 0 0 0 0 0 0 0 0 0 0 0 0 0 0 0 0 0 0 0 0 0 0 18.14126400474174 -8.02845266613536 -16.420644467496945 6.560348309819582 35.69110219752456 15.963694938552667 19.114258246533034 -32.64233186490179 -9.182041805742134 0 0 0 -4.7250595325945985 -26.817917403770704 -2.3590291182924545 -5.234815769094075 -2.8825437340023132 -7.827679612280822 2.7822106963929096 6.706676793528812 3.199040869234193 0 0 0
-3.349678598980444 -0.01209268217596629 -18.83962532363005 -64.28260421971216 -3.9520864071556114 3.758322686218145 -8.14901244841536 23.533211631024564 -7.783853966421636 -6.5387618050892735 8.477816979942697 -0.18291661884027713 0 0 0 14.667205230952844 19.813923128624083 -8.447145220855308 13.926714067743495 -13.173241985295467 -7.020504018951229 0 0 0 0 0 0 -11.221225670207108 2.4901026082066444 -4.754845502298092 -107.78456161087243 -8.670582433400856 -24.241138983164372 -71.79459063971228 41.21205923644988 8.401312707999015 -6.152363706182654 4.482224250432305 11.716379476266953 0 0 0 0 0 0 0 0 0 0 0 0 0 0 0 0 0 0 0 0 0 0 0 0 0 0 0 0 0 0 0 0 0 0 0 0 0 0 0 0 0 0 0 0 0 34.22853494356592 -8.999884825832039 35.240025201184196 -12.202504261231145 -24.741032047489128 34.850078958624685 88.81266094960368 -24.285298156190127 -4.769822826620422 -11.939163139736742 -12.52116067368708 -55.780966131136196 0 0 0 0 0 0 0 0 0 0 0 0 0 0 0 0 0 0 0 0 0 0 0 0 0 0 0 0 0 0 0 0 0 0 0 0 0 0 0 0 0 0 0 0 0 20.452239699405396 -8.125423150592363 -16.60395061095259 9.509717494270934 39.6291792877966 17.573118260635457 20.78314364345511 -35.34444622492808 -9.874911552976922 0 0 0 -4.467629069808393 -27.84489018805016 -0.7204689331810893 -5.130432496689366 -0.8246100983942565 -8.619016495074176 5.639868447450455 10.544637069513636 3.7685051366686486 0 0 0
-3.3787020918790307 -0.10453512164600859 -18.686988581264202 -67.16546000246849 -3.293231645420889 4.362970408953368 -8.294658766480072 24.508691876765933 -6.7229054786835105 -7.018055115440715 10.003493858015979 -0.6323883557267129 0 0 0 15.93112073787359 19.77188606656465 -8.801827376845726 16.2693926293426 -15.009288046876206 -10.519969374554343 0 0 0 0 0 0 -12.462775009017998 2.5468464951709926 -4.698961920074117 -109.18031983482288 -6.325898354806742 -25.108914813878094 -71.24105884124377 43.8117993113296 10.867273770845948 -8.505212405430962 5.789118288333145 10.817249707465434 0 0 0 0 0 0 0 0 0 0 0 0 0 0 0 0 0 0 0 0 0 0 0 0 0 0 0 0 0 0 0 0 0 0 0 0 0 0 0 0 0 0 0 0 0 37.136749166551155 -9.726269086379453 35.19398100908408 -4.212505409757249 -18.39435464961018 33.37105264155261 89.8641295933616 -16.4666352054143 -6.034582705388444 -11.286888164753512 -10.23549181866008 -47.807286857350235 0 0 0 0 0 0 0 0 0 0 0 0 0 0 0 0 0 0 0 0 0 0 0 0 0 0 0 0 0 0 0 0 0 0 0 0 0 0 0 0 0 0 0 0 0 21.557613212517712 -8.245168164714347 -17.675013376051886 11.462283189838288 40.59698375808901 18.41334220427358 22.848975557131556 -36.871047687601965 -10.978117624934406 0 0 0 -7.7464721764287905 -31.282925825911633 0.9822932016431289 -6.165093194982243 3.647063646714835 -10.130079318332069 8.193685259857345 11.615849295338288 3.939912351014922 0 0 0
-3.407725584777618 -0.1969775611160509 -18.534351838898356 -70.03945173826841 -2.604905420374896 4.933318811402777 -8.440167029992123 25.53113744311987 -5.706757588932678 -7.511976181091839 11.525347449580801 -1.0971461308721668 0 0 0 17.194984345609548 19.73721982236214 -9.157324477771738 18.745165841692607 -16.701017905934137 -14.125490188668437 0 0 0 0 0 0 -13.704324911579523 2.6047868367525044 -4.644319364047291 -110.60637235831959 -4.003105308960569 -26.030478351179234 -70.5002697757244 46.39090495662192 13.483969964439186 -10.884386362358653 7.0579309015222975 9.862549251122536 0 0 0 0 0 0 0 0 0 0 0 0 0 0 0 0 0 0 0 0 0 0 0 0 0 0 0 0 0 0 0 0 0 0 0 0 0 0 0 0 0 0 0 0 0 40.05210744019165 -10.449407414048999 35.11041658606983 3.3695434163591784 -11.92008048130929 32.84945429068037 90.70981624401915 -8.629498546242537 -7.11654736304183 -10.324791965954276 -8.060402789081898 -39.857881537620834 0 0 0 0 0 0 0 0 0 0 0 0 0 0 0 0 0 0 0 0 0 0 0 0 0 0 0 0 0 0 0 0 0 0 0 0 0 0 0 0 0 0 0 0 0 22.66536387450846 -8.344416863340472 -18.748510232303897 13.462204650356794 41.542052013072606 19.30943415174687 24.994263161892356 -38.36388167380096 -12.17338751080711 0 0 0 -11.27610808405148 -34.62704197419419 2.987527468009813 -7.32667351781966 8.088991380486846 -11.734489311781605 10.761031203559105 12.678478324399025 4.160757454456746 0 0 0
-3.436749077676205 -0.2894200005860932 -18.38171509653251 -72.90506686709892 -1.8889251065112302 5.468146342315907 -8.588298526445419 26.597943551824752 -4.73820808696504 -8.021412256071352 13.04314613566653 -1.5780434309045805 0 0 0 18.458808549014034 19.709943158682247 -9.513478090772686 21.34997931301678 -18.237341460173663 -17.836581103518636 0 0 0 0 0 0 -14.945876837245956 2.6638962915593254 -4.590944322939154 -112.06673521877063 -1.7041614728055332 -27.00772024457682 -69.54377549103366 48.942457393516044 16.28304886761315 -13.291577069266008 8.286023004725916 8.852648061166272 0 0 0 0 0 0 0 0 0 0 0 0 0 0 0 0 0 0 0 0 0 0 0 0 0 0 0 0 0 0 0 0 0 0 0 0 0 0 0 0 0 0 0 0 0 42.975546568668 -11.167417120514669 34.98927310674214 10.762398767432934 -5.43539591941034 33.19747708663792 91.39833750256935 -0.778971053622232 -8.070946058594355 -9.073818811183813 -6.03755155001054 -31.909035850080706 0 0 0 0 0 0 0 0 0 0 0 0 0 0 0 0 0 0 0 0 0 0 0 0 0 0 0 0 0 0 0 0 0 0 0 0 0 0 0 0 0 0 0 0 0 23.775054439079817 -8.423092750848717 -19.82398947650713 15.51144362253933 42.46266841188143 20.262905579868356 27.224924097062377 -39.819491436052665 -13.465787376457026 0 0 0 -15.103131061052462 -37.8564545573856 5.335423090421551 -8.631447695348667 12.495577138218984 -13.453355415942365 13.343714649903315 13.730333834659154 4.431333961722937 0 0 0
